SplineFontDB: 3.0
FontName: Acid1MathML-Italic
FullName: Acid1MathML-Italic
FamilyName: Acid1MathML
Weight: Italic
Version: 1.0
ItalicAngle: -16.33
UnderlinePosition: -50
UnderlineWidth: 50
Ascent: 750
Descent: 250
LayerCount: 2
Layer: 0 0 "Arri+AOgA-re"  1
Layer: 1 0 "Avant"  0
NeedsXUIDChange: 1
XUID: [1021 298 1341886361 10322278]
FSType: 0
OS2Version: 0
OS2_WeightWidthSlopeOnly: 0
OS2_UseTypoMetrics: 1
CreationTime: 1367569528
ModificationTime: 1367570904
OS2TypoAscent: 0
OS2TypoAOffset: 1
OS2TypoDescent: 0
OS2TypoDOffset: 1
OS2TypoLinegap: 90
OS2WinAscent: 0
OS2WinAOffset: 1
OS2WinDescent: 0
OS2WinDOffset: 1
HheadAscent: 0
HheadAOffset: 1
HheadDescent: 0
HheadDOffset: 1
DEI: 91125
Encoding: UnicodeFull
UnicodeInterp: none
NameList: Adobe Glyph List
DisplaySize: -24
AntiAlias: 1
FitToEm: 1
WinInfo: 119900 50 15
BeginChars: 1114112 101

StartChar: exclam
Encoding: 33 33 1
Width: 333
Flags: W
HStem: -11 106<50.2639 133.602> 647 20G<241 274>
VStem: 39 106<0.950928 83.6872> 191 113<531.697 633.481>
LayerCount: 2
Fore
SplineSet
137 177 m 0
 120 182 l 0
 161 372 169 409 191 551 c 0
 204 636 222 667 260 667 c 0
 288 667 304 650 304 616 c 0
 304 586 296 559 265 493 c 0
 219 395 197 341 137 177 c 0
145 41 m 0
 145 13 119 -11 89 -11 c 0
 59 -11 39 12 39 43 c 0
 39 71 65 95 93 95 c 0
 124 95 145 70 145 41 c 0
EndSplineSet
Validated: 1
EndChar

StartChar: quotedbl
Encoding: 34 34 2
Width: 420
Flags: W
HStem: 421 245
VStem: 166 87<571.125 655.783> 345 87<571.5 656.421>
LayerCount: 2
Fore
SplineSet
346 421 m 0
 323 421 l 0
 331 521 340 600 345 624 c 0
 351 651 374 666 399 666 c 0
 416 666 432 654 432 638 c 0
 432 622 405 549 346 421 c 0
167 421 m 0
 144 421 l 0
 152 521 161 600 166 624 c 0
 172 651 196 666 221 666 c 0
 238 666 253 654 253 638 c 0
 253 622 226 548 167 421 c 0
EndSplineSet
Validated: 1
EndChar

StartChar: numbersign
Encoding: 35 35 3
Width: 501
Flags: W
HStem: 0 21G<18 87.4178 209 278.418> 213 54<13 98 180 289 371 454> 410 54<87 173 254 364 445 529>
LayerCount: 2
Fore
SplineSet
540 464 m 0
 529 410 l 0
 425 410 l 0
 371 267 l 0
 465 267 l 0
 454 213 l 0
 350 213 l 0
 271 0 l 0
 209 0 l 0
 289 213 l 0
 159 213 l 0
 80 0 l 0
 18 0 l 0
 98 213 l 0
 2 213 l 0
 13 267 l 0
 119 267 l 0
 173 410 l 0
 76 410 l 0
 87 464 l 0
 193 464 l 0
 273 676 l 0
 334 676 l 0
 254 464 l 0
 384 464 l 0
 464 676 l 0
 525 676 l 0
 445 464 l 0
 540 464 l 0
364 410 m 0
 234 410 l 0
 180 267 l 0
 310 267 l 0
 364 410 l 0
EndSplineSet
Validated: 1
EndChar

StartChar: dollar
Encoding: 36 36 4
Width: 500
Flags: W
HStem: 0 25<221 282.954> 2 30<151.441 181> 641 27<262.62 336>
VStem: 58 16<157.885 191> 123 78<466.102 587.292> 380 75<100.819 240.343> 454 15<499 525.061>
LayerCount: 2
Fore
SplineSet
497 611 m 0x7c
 469 497 l 0
 454 499 l 0x7a
 452 573 432 610 369 633 c 0
 313 396 l 0
 430 310 455 275 455 190 c 0
 455 131 431 80 388 47 c 0
 333 5 301 0 215 0 c 0xbc
 194 -89 l 0
 159 -89 l 0
 181 2 l 0
 123 13 68 36 32 68 c 0
 58 191 l 0
 74 194 l 0
 79 89 111 56 189 32 c 0
 258 329 l 0
 160 392 123 432 123 508 c 0
 123 555 139 586 165 614 c 0
 207 659 250 668 323 668 c 0
 341 668 l 0
 358 731 l 0
 392 731 l 0
 376 663 l 0
 423 652 465 634 497 611 c 0x7c
336 641 m 0
 320 641 l 0
 247 641 201 588 201 532 c 0
 201 486 220 455 281 418 c 0
 336 641 l 0
289 306 m 0
 221 25 l 0
 327 34 380 82 380 169 c 0xbc
 380 227 363 245 295 301 c 0
 289 306 l 0
EndSplineSet
Validated: 1
EndChar

StartChar: percent
Encoding: 37 37 5
Width: 755
Flags: W
HStem: -19 27<515.156 591.949> 302 28<581.311 654.866> 326 27<173.253 250.97> 583 26<371.603 497.086>
VStem: 80 71<382.535 533.436> 340 24<482.834 596.365> 420 72<38.5232 182.471> 682 23<139.644 267.448>
LayerCount: 2
Fore
SplineSet
705 213 m 0xdf
 705 92 627 -19 541 -19 c 0
 473 -19 420 41 420 119 c 0
 420 226 513 330 609 330 c 0
 670 330 705 287 705 213 c 0xdf
682 215 m 0
 682 267 657 302 619 302 c 0
 603 302 582 293 570 279 c 0
 526 232 492 144 492 76 c 0
 492 37 516 8 548 8 c 0
 617 8 682 109 682 215 c 0
640 706 m 0
 210 -18 l 0
 163 -18 l 0
 557 640 l 0
 520 597 489 583 436 583 c 0
 410 583 392 586 360 597 c 0
 363 580 364 569 364 553 c 0
 364 483 332 408 284 363 c 0
 257 337 231 326 198 326 c 0xbf
 131 326 80 385 80 463 c 0
 80 576 171 676 273 676 c 0
 294 676 306 670 333 648 c 0
 368 619 392 609 429 609 c 0
 491 609 504 617 596 706 c 0
 640 706 l 0
340 569 m 0
 340 598 336 605 315 615 c 0
 301 622 288 631 271 649 c 0
 230 629 219 619 199 586 c 0
 168 537 151 478 151 423 c 0
 151 381 174 353 208 353 c 0
 279 353 340 454 340 569 c 0
EndSplineSet
Validated: 1
EndChar

StartChar: ampersand
Encoding: 38 38 6
Width: 778
Flags: W
HStem: -18 49<226.597 364.793 578.427 678.181> 331 19<529 570.212 673.354 717> 634 32<440.076 505.907>
VStem: 76 94<85.0004 220.396> 324 81<428.922 578.012> 517 69<507.827 629.063>
LayerCount: 2
Fore
SplineSet
712 63 m 0
 723 52 l 0
 691 -1 649 -18 591 -18 c 0
 547 -18 497 8 457 61 c 0
 378 -1 322 -18 258 -18 c 0
 147 -18 76 38 76 135 c 0
 76 190 102 246 151 286 c 0
 187 315 230 334 331 378 c 0
 324 420 324 461 324 472 c 0
 324 589 385 666 483 666 c 0
 544 666 586 625 586 572 c 0
 586 537 567 501 530 469 c 0
 503 445 475 428 414 397 c 0
 433 296 470 209 501 160 c 0
 563 231 580 264 580 299 c 0
 580 321 569 328 529 331 c 0
 529 350 l 0
 717 350 l 0
 717 333 l 0
 667 328 657 318 606 243 c 0
 578 201 550 165 520 125 c 0
 560 58 595 31 642 31 c 0
 665 31 688 40 712 63 c 0
517 572 m 0
 517 612 503 634 478 634 c 0
 438 634 405 593 405 504 c 0
 405 478 406 458 410 428 c 0
 495 481 517 522 517 572 c 0
436 93 m 0
 402 136 369 218 333 345 c 0
 236 307 170 238 170 160 c 0
 170 86 219 34 298 34 c 0
 348 34 388 56 436 93 c 0
EndSplineSet
Validated: 1
EndChar

StartChar: quotesingle
Encoding: 39 39 7
Width: 214
Flags: W
HStem: 421 245
VStem: 155 86<569.625 658.388>
LayerCount: 2
Fore
SplineSet
155 421 m 0
 132 421 l 0
 140 521 149 603 155 627 c 0
 160 649 177 666 206 666 c 0
 228 666 241 651 241 635 c 0
 241 619 214 548 155 421 c 0
EndSplineSet
Validated: 1
EndChar

StartChar: parenleft
Encoding: 40 40 8
Width: 333
Flags: W
HStem: 649 20G<256 315>
VStem: 42 69<6.78967 300.773>
LayerCount: 2
Fore
SplineSet
302 669 m 0
 315 654 l 0
 163 510 111 289 111 85 c 0
 111 -12 122 -73 159 -175 c 0
 141 -181 l 0
 77 -78 42 52 42 180 c 0
 42 283 64 385 116 470 c 0
 155 533 210 585 302 669 c 0
EndSplineSet
Validated: 1
EndChar

StartChar: parenright
Encoding: 41 41 9
Width: 333
Flags: W
HStem: 649 20G<171 213.5>
VStem: 220 69<201.602 482.236>
LayerCount: 2
Fore
SplineSet
171 664 m 0
 190 669 l 0
 237 585 253 546 270 472 c 0
 282 416 289 358 289 304 c 0
 289 203 261 108 211 22 c 0
 172 -45 120 -101 29 -180 c 0
 16 -165 l 0
 100 -76 137 -9 171 97 c 0
 202 193 220 308 220 402 c 0
 220 502 205 583 171 664 c 0
EndSplineSet
Validated: 1
EndChar

StartChar: asterisk
Encoding: 42 42 10
Width: 500
Flags: W
HStem: 340 80<138.52 202.4 416.598 483.615> 499 83<135.951 200.594 419.004 484.697> 646 20G<297.5 321.5>
VStem: 273 74<257.508 373.357 540.976 662.828> 301 18<364.122 446 475 549.592>
LayerCount: 2
Fore
SplineSet
328 459 m 0xe8
 365 440 l 0
 377 434 396 424 428 420 c 0
 473 414 492 399 492 376 c 0
 492 351 476 339 454 339 c 0
 439 339 427 348 408 371 c 0
 382 404 368 411 337 433 c 0
 319 446 l 0xe8
 320 393 324 371 339 329 c 0
 345 311 347 304 347 295 c 0
 347 271 338 255 310 255 c 0
 284 255 273 271 273 293 c 0xf0
 273 302 276 313 283 334 c 0
 296 370 301 395 301 446 c 0
 298 443 294 441 285 436 c 0
 254 417 242 408 214 373 c 0
 197 352 180 340 163 340 c 0
 144 340 128 351 128 372 c 0
 128 396 147 413 190 420 c 0
 237 428 251 434 294 460 c 0
 282 467 l 0
 265 477 231 494 189 499 c 0
 148 504 128 519 128 543 c 0
 128 563 141 582 161 582 c 0
 177 582 190 574 210 551 c 0
 243 514 262 498 301 475 c 0
 301 518 297 536 283 582 c 0
 277 602 275 615 275 624 c 0
 275 649 285 666 310 666 c 0
 333 666 346 648 346 625 c 0
 346 614 342 601 335 577 c 0
 325 545 319 520 319 473 c 0
 363 502 365 504 419 561 c 0
 434 578 444 582 457 582 c 0
 480 582 492 565 492 543 c 0
 492 521 478 505 435 500 c 0
 388 494 371 486 328 459 c 0xe8
EndSplineSet
Validated: 1
EndChar

StartChar: plus
Encoding: 43 43 11
Width: 675
Flags: W
HStem: 0 21G<305 371> 220 66<86 305 371 590>
VStem: 305 66<0 220 286 506>
LayerCount: 2
Fore
SplineSet
590 220 m 0
 371 220 l 0
 371 0 l 0
 305 0 l 0
 305 220 l 0
 86 220 l 0
 86 286 l 0
 305 286 l 0
 305 506 l 0
 371 506 l 0
 371 286 l 0
 590 286 l 0
 590 220 l 0
EndSplineSet
Validated: 1
EndChar

StartChar: comma
Encoding: 44 44 12
Width: 250
Flags: W
HStem: -129 230
VStem: 71 64<-38.4735 47>
LayerCount: 2
Fore
SplineSet
5 -129 m 0
 -5 -111 l 0
 48 -77 71 -48 71 -21 c 0
 71 -11 67 -4 51 8 c 0
 31 23 26 38 26 57 c 0
 26 81 48 101 77 101 c 0
 113 101 135 67 135 27 c 0
 135 -29 89 -85 5 -129 c 0
EndSplineSet
Validated: 1
EndChar

StartChar: hyphen
Encoding: 45 45 13
Width: 333
Flags: W
HStem: 192 63<63 269>
VStem: 49 233
LayerCount: 2
Fore
SplineSet
282 255 m 0
 269 192 l 0
 49 192 l 0
 63 255 l 0
 282 255 l 0
EndSplineSet
Validated: 1
EndChar

StartChar: period
Encoding: 46 46 14
Width: 250
Flags: W
HStem: -11 111<38.8467 124.913>
VStem: 27 111<1.27393 87.1519>
LayerCount: 2
Fore
SplineSet
138 43 m 0
 138 13 112 -11 80 -11 c 0
 52 -11 27 14 27 43 c 0
 27 75 52 100 82 100 c 0
 112 100 138 74 138 43 c 0
EndSplineSet
Validated: 1
EndChar

StartChar: slash
Encoding: 47 47 15
Width: 278
Flags: W
HStem: 646 20G<301.947 386>
LayerCount: 2
Fore
SplineSet
386 666 m 0
 8 -18 l 0
 -65 -18 l 0
 313 666 l 0
 386 666 l 0
EndSplineSet
Validated: 1
EndChar

StartChar: zero
Encoding: 48 48 16
Width: 500
Flags: W
HStem: -7 28<153.806 241.329> 648 28<286.352 378.281>
VStem: 32 79<87.9103 315.808> 418 79<334.586 569.839>
LayerCount: 2
Fore
SplineSet
497 425 m 0
 497 278 419 109 316 36 c 0
 275 7 232 -7 190 -7 c 0
 88 -7 32 77 32 216 c 0
 32 451 181 676 338 676 c 0
 440 676 497 587 497 425 c 0
418 518 m 0
 418 598 394 648 334 648 c 0
 289 648 250 618 214 553 c 0
 162 459 111 263 111 156 c 0
 111 71 144 21 192 21 c 0
 238 21 284 55 321 121 c 0
 379 223 418 388 418 518 c 0
EndSplineSet
Validated: 1
EndChar

StartChar: one
Encoding: 49 49 17
Width: 500
Flags: W
HStem: 0 15<50 106.492 258.5 329> 623 15<209 232>
VStem: 306 103<588.039 671>
LayerCount: 2
Fore
SplineSet
401 676 m 0
 404 676 l 0
 407 676 409 673 409 669 c 0
 409 664 407 654 403 640 c 0
 260 121 l 0
 253 96 242 57 242 47 c 0
 242 24 264 15 308 15 c 0
 329 15 l 0
 329 0 l 0
 50 0 l 0
 50 15 l 0
 129 21 151 32 162 70 c 0
 298 558 l 0
 303 577 306 587 306 594 c 0
 306 613 293 625 271 625 c 0
 268 625 l 0
 250 625 228 624 209 623 c 0
 209 638 l 0
 232 643 l 0
 320 662 324 660 401 676 c 0
EndSplineSet
Validated: 1
EndChar

StartChar: two
Encoding: 50 50 18
Width: 500
Flags: W
HStem: 0 76<115 366> 603 73<193.753 321.021>
VStem: 366 86<425.835 557.748>
LayerCount: 2
Fore
SplineSet
101 507 m 0
 80 514 l 0
 104 573 127 607 162 634 c 0
 201 664 244 676 290 676 c 0
 386 676 452 602 452 507 c 0
 452 440 421 394 303 273 c 0
 115 81 l 0
 115 76 l 0
 296 76 l 0
 355 76 375 91 399 141 c 0
 416 134 l 0
 366 0 l 0
 12 0 l 0
 12 17 l 0
 222 241 l 0
 288 311 333 374 357 428 c 0
 363 441 366 460 366 482 c 0
 366 551 326 603 247 603 c 0
 187 603 136 574 101 507 c 0
EndSplineSet
Validated: 1
EndChar

StartChar: three
Encoding: 51 51 19
Width: 500
Flags: W
HStem: -7 38<91 239.318> 361 16<141 179.859> 634 42<240.231 348.357>
VStem: 325 80<151.914 294.617> 378 87<480.684 606.131>
LayerCount: 2
Fore
SplineSet
178 567 m 0xe8
 162 572 l 0
 195 644 259 676 333 676 c 0
 411 676 465 626 465 554 c 0xe8
 465 480 424 441 310 401 c 0
 310 398 l 0
 378 372 405 327 405 254 c 0
 405 175 369 105 312 55 c 0
 263 12 199 -7 127 -7 c 0
 55 -7 16 17 16 50 c 0
 16 75 33 93 59 93 c 0
 78 93 96 87 123 63 c 0
 149 40 175 31 194 31 c 0
 227 31 262 49 287 77 c 0
 313 108 325 156 325 203 c 0xf0
 325 311 261 361 165 361 c 0
 141 361 l 0
 141 377 l 0
 231 393 273 407 316 437 c 0
 358 466 378 501 378 543 c 0
 378 598 343 634 290 634 c 0
 247 634 214 614 178 567 c 0xe8
EndSplineSet
Validated: 1
EndChar

StartChar: four
Encoding: 52 52 20
Width: 500
Flags: W
HStem: 0 21G<214 298.169> 178 63<65 263 358 440>
LayerCount: 2
Fore
SplineSet
479 676 m 0
 358 241 l 0
 454 241 l 0
 440 178 l 0
 339 178 l 0
 293 0 l 0
 214 0 l 0
 263 178 l 0
 1 178 l 0
 21 245 l 0
 438 676 l 0
 479 676 l 0
373 563 m 0
 369 563 l 0
 65 245 l 0
 65 241 l 0
 277 241 l 0
 373 563 l 0
EndSplineSet
Validated: 1
EndChar

StartChar: five
Encoding: 53 53 21
Width: 500
Flags: W
HStem: -7 42<91.5 231.475> 595 71<238 468>
VStem: 350 69<175.399 331.734>
LayerCount: 2
Fore
SplineSet
491 666 m 0
 468 595 l 0
 238 595 l 0
 199 507 l 0
 331 482 419 419 419 284 c 0
 419 119 286 -7 121 -7 c 0
 62 -7 15 10 15 50 c 0
 15 73 32 92 55 92 c 0
 71 92 87 84 111 64 c 0
 137 43 147 35 175 35 c 0
 265 35 350 134 350 246 c 0
 350 299 329 345 297 371 c 0
 261 400 225 418 131 432 c 0
 131 448 l 0
 235 666 l 0
 491 666 l 0
EndSplineSet
Validated: 1
EndChar

StartChar: six
Encoding: 54 54 22
Width: 500
Flags: W
HStem: -7 26<159.801 255.402> 411 36<209.302 319.719> 670 16<486.995 521>
VStem: 30 76<90.0349 284.749> 373 89<165.31 358.13>
LayerCount: 2
Fore
SplineSet
521 686 m 0
 521 670 l 0
 401 654 269 555 199 428 c 0
 203 426 l 0
 229 442 267 447 295 447 c 0
 387 447 462 373 462 271 c 0
 462 120 348 -7 208 -7 c 0
 88 -7 30 77 30 208 c 0
 30 343 98 477 214 568 c 0
 308 642 379 669 521 686 c 0
373 289 m 0
 373 361 326 411 256 411 c 0
 217 411 182 392 158 355 c 0
 128 309 106 223 106 150 c 0
 106 68 148 19 204 19 c 0
 250 19 283 41 315 88 c 0
 350 140 373 223 373 289 c 0
EndSplineSet
Validated: 1
EndChar

StartChar: seven
Encoding: 55 55 23
Width: 500
Flags: W
HStem: 593 73<157 444>
LayerCount: 2
Fore
SplineSet
537 656 m 0
 149 -8 l 0
 79 -8 l 0
 446 590 l 0
 444 593 l 0
 229 593 l 0
 163 593 138 577 90 520 c 0
 75 530 l 0
 157 666 l 0
 530 666 l 0
 537 656 l 0
EndSplineSet
Validated: 1
EndChar

StartChar: eight
Encoding: 56 56 24
Width: 500
Flags: W
HStem: -7 22<185.043 286.201> 653 23<268.035 363.391>
VStem: 30 68<77.7431 235.44> 138 78<479.328 602.586> 369 75<95.6484 229.751> 425 68<464.192 607.336>
LayerCount: 2
Fore
SplineSet
225 360 m 0xf8
 225 361 l 0
 159 434 138 470 138 524 c 0
 138 620 213 676 320 676 c 0
 427 676 493 621 493 540 c 0xf4
 493 462 449 418 329 382 c 0
 329 381 l 0
 415 302 444 254 444 181 c 0
 444 70 353 -7 229 -7 c 0
 127 -7 30 42 30 161 c 0
 30 255 105 325 225 360 c 0xf8
425 530 m 0
 425 601 382 653 318 653 c 0
 254 653 216 610 216 545 c 0
 216 503 233 472 311 399 c 0
 398 440 425 475 425 530 c 0
369 155 m 0xf8
 369 212 357 230 247 344 c 0
 157 310 98 236 98 149 c 0
 98 67 169 15 237 15 c 0
 316 15 369 86 369 155 c 0xf8
EndSplineSet
Validated: 1
EndChar

StartChar: nine
Encoding: 57 57 25
Width: 500
Flags: W
HStem: -17 19<23 57.9782> 229 46<198.051 306.423> 650 26<263.515 366.435>
VStem: 69 88<319.009 513.973> 417 75<385.179 572.654>
LayerCount: 2
Fore
SplineSet
352 272 m 0
 348 274 l 0
 295 241 260 229 219 229 c 0
 131 229 69 303 69 408 c 0
 69 488 106 568 162 619 c 0
 204 657 257 676 311 676 c 0
 428 676 492 590 492 458 c 0
 492 319 423 187 300 92 c 0
 220 30 155 5 23 -17 c 0
 23 2 l 0
 102 19 150 44 224 105 c 0
 288 158 336 227 352 272 c 0
417 518 m 0
 417 601 380 650 318 650 c 0
 271 650 238 626 210 589 c 0
 176 544 157 477 157 414 c 0
 157 325 193 275 257 275 c 0
 297 275 340 293 365 321 c 0
 393 351 417 444 417 518 c 0
EndSplineSet
Validated: 1
EndChar

StartChar: colon
Encoding: 58 58 26
Width: 333
Flags: W
HStem: -11 111<62.7644 148.319> 330 111<161.538 249.003>
VStem: 50 111<0.77161 87.6945> 150 111<341.463 429.003>
LayerCount: 2
Fore
SplineSet
261 384 m 0xd0
 261 354 236 330 204 330 c 0
 174 330 150 354 150 384 c 0
 150 416 174 441 205 441 c 0
 236 441 261 416 261 384 c 0xd0
161 43 m 0xe0
 161 13 136 -11 104 -11 c 0
 75 -11 50 14 50 43 c 0
 50 74 75 100 106 100 c 0
 136 100 161 74 161 43 c 0xe0
EndSplineSet
Validated: 1
EndChar

StartChar: semicolon
Encoding: 59 59 27
Width: 333
Flags: W
HStem: 330 111<161.538 249.003>
VStem: 102 64<-38.4735 47> 150 111<341.463 429.003>
LayerCount: 2
Fore
SplineSet
261 384 m 0xa0
 261 354 236 330 204 330 c 0
 174 330 150 354 150 384 c 0
 150 416 174 441 205 441 c 0
 236 441 261 416 261 384 c 0xa0
36 -129 m 0
 26 -111 l 0
 79 -77 102 -48 102 -21 c 0
 102 -11 98 -4 82 8 c 0
 62 23 57 38 57 57 c 0
 57 81 79 101 108 101 c 0
 144 101 166 67 166 27 c 0xc0
 166 -29 120 -85 36 -129 c 0
EndSplineSet
Validated: 1
EndChar

StartChar: less
Encoding: 60 60 28
Width: 675
Flags: W
LayerCount: 2
Fore
SplineSet
592 -10 m 0
 84 220 l 0
 84 286 l 0
 592 516 l 0
 592 444 l 0
 172 253 l 0
 592 62 l 0
 592 -10 l 0
EndSplineSet
Validated: 1
EndChar

StartChar: equal
Encoding: 61 61 29
Width: 675
Flags: W
HStem: 120 66<86 590> 320 66<86 590>
LayerCount: 2
Fore
SplineSet
590 320 m 0
 86 320 l 0
 86 386 l 0
 590 386 l 0
 590 320 l 0
590 120 m 0
 86 120 l 0
 86 186 l 0
 590 186 l 0
 590 120 l 0
EndSplineSet
Validated: 1
EndChar

StartChar: greater
Encoding: 62 62 30
Width: 675
Flags: W
LayerCount: 2
Fore
SplineSet
592 220 m 0
 84 -10 l 0
 84 62 l 0
 504 253 l 0
 84 444 l 0
 84 516 l 0
 592 286 l 0
 592 220 l 0
EndSplineSet
Validated: 1
EndChar

StartChar: question
Encoding: 63 63 31
Width: 500
Flags: W
HStem: -12 105<142.248 225.303> 642 22<270.612 358.456>
VStem: 132 105<-2.07214 81.669> 184 64<525.509 616.41> 198 18<175.833 202> 398 74<475.421 613.941>
LayerCount: 2
Fore
SplineSet
216 174 m 0xcc
 198 177 l 0xcc
 216 277 226 308 314 396 c 0
 379 461 398 508 398 560 c 0
 398 604 369 642 318 642 c 0
 274 642 248 624 248 594 c 0
 248 586 250 580 256 567 c 0
 261 556 262 550 262 542 c 0
 262 526 244 506 220 506 c 0
 196 506 184 525 184 555 c 0xd4
 184 619 241 664 319 664 c 0
 417 664 472 623 472 540 c 0
 472 479 457 443 341 356 c 0
 267 301 237 259 223 202 c 0
 216 174 l 0xcc
237 38 m 0xe4
 237 10 212 -12 184 -12 c 0xd4
 154 -12 132 8 132 38 c 0xe4
 132 71 155 93 184 93 c 0xd4
 213 93 237 67 237 38 c 0xe4
EndSplineSet
Validated: 1
EndChar

StartChar: at
Encoding: 64 64 32
Width: 920
Flags: W
HStem: -18 39<375.412 602.128> 138 33<604.46 681.867> 139 42<409.62 478.604> 456 45<475.168 563.011> 635 31<387.807 569.573>
VStem: 118 83<203.281 435.513> 321 71<196.167 350.129> 570 28<211 394> 766 40<272.592 462.15>
LayerCount: 2
Fore
SplineSet
686 68 m 0xdf80
 698 39 l 0
 604 -5 545 -18 474 -18 c 0
 274 -18 118 129 118 319 c 0
 118 512 278 666 481 666 c 0
 681 666 806 525 806 373 c 0
 806 245 721 138 622 138 c 0xdf80
 575 138 543 164 533 210 c 0
 499 164 454 139 412 139 c 0xbf80
 362 139 321 181 321 244 c 0
 321 348 398 501 519 501 c 0
 550 501 574 486 587 449 c 0
 597 486 l 0
 666 486 l 0
 605 250 l 0
 599 227 598 216 598 211 c 0
 598 184 614 171 638 171 c 0
 699 171 766 264 766 372 c 0
 766 514 635 635 479 635 c 0
 316 635 201 506 201 318 c 0
 201 144 314 21 486 21 c 0
 552 21 609 33 686 68 c 0xdf80
570 394 m 0
 570 431 559 456 530 456 c 0
 505 456 466 436 439 401 c 0
 410 363 392 316 392 265 c 0
 392 213 414 181 451 181 c 0xbf80
 508 181 570 291 570 394 c 0
EndSplineSet
Validated: 1
EndChar

StartChar: A
Encoding: 65 65 33
Width: 611
Flags: W
HStem: 0 16<-51 -26.2573 91.3251 135 319 368.02 525.244 564> 226 36<175 369> 648 20G<356.508 397.327>
LayerCount: 2
Fore
SplineSet
564 0 m 0
 319 0 l 0
 319 16 l 0
 382 19 396 35 396 69 c 0
 396 77 395 86 394 95 c 0
 374 226 l 0
 154 226 l 0
 95 115 l 0
 81 89 73 65 73 49 c 0
 73 30 88 18 135 16 c 0
 135 0 l 0
 -51 0 l 0
 -51 16 l 0
 -5 25 8 42 83 172 c 0
 368 668 l 0
 394 668 l 0
 486 115 l 0
 500 31 511 20 564 16 c 0
 564 0 l 0
369 262 m 0
 324 525 l 0
 175 262 l 0
 369 262 l 0
EndSplineSet
Validated: 1
EndChar

StartChar: B
Encoding: 66 66 34
Width: 611
Flags: W
HStem: 0 30<182.842 322.328> 0 16<-8 27.4517> 331 32<248 372.672> 623 30<319.512 440.033> 637 16<130 183.484>
VStem: 431 108<111.802 279.67> 487 101<434.702 582.712>
LayerCount: 2
Fore
SplineSet
130 653 m 0x6c
 380 653 l 0
 519 653 588 602 588 503 c 0x32
 588 449 560 414 524 390 c 0
 493 369 456 360 413 351 c 0
 413 350 l 0
 499 324 539 271 539 200 c 0
 539 66 426 0 264 0 c 0xb4
 -8 0 l 0
 -8 16 l 0
 47 24 58 34 75 96 c 0
 196 532 l 0
 203 557 207 581 207 596 c 0
 207 625 193 632 130 637 c 0
 130 653 l 0x6c
248 363 m 0
 286 363 l 0
 417 363 487 416 487 515 c 0
 487 589 451 623 370 623 c 0
 331 623 321 623 311 587 c 0
 248 363 l 0
238 331 m 0
 206 212 l 0
 186 136 171 85 171 72 c 0
 171 44 196 30 238 30 c 0
 353 30 431 89 431 200 c 0xa4
 431 262 402 306 364 319 c 0
 344 326 301 331 238 331 c 0
EndSplineSet
Validated: 1
EndChar

StartChar: C
Encoding: 67 67 35
Width: 667
Flags: W
HStem: -18 45<259.167 438.847> 630 36<398.311 558.37>
VStem: 66 112<126.754 370.611> 634 18<467 501.838>
LayerCount: 2
Fore
SplineSet
689 664 m 0
 652 464 l 0
 634 467 l 0
 622 574 573 630 485 630 c 0
 411 630 341 592 286 533 c 0
 214 456 178 342 178 232 c 0
 178 92 242 27 353 27 c 0
 435 27 495 56 582 146 c 0
 600 131 l 0
 510 25 430 -18 327 -18 c 0
 174 -18 66 78 66 243 c 0
 66 384 143 515 253 593 c 0
 317 639 393 666 472 666 c 0
 505 666 547 664 589 649 c 0
 609 642 621 642 630 642 c 0
 650 642 660 648 668 664 c 0
 689 664 l 0
EndSplineSet
Validated: 1
EndChar

StartChar: D
Encoding: 68 68 36
Width: 722
Flags: W
HStem: 0 30<178.617 348.659> 0 16<-8 26.1875> 623 30<323.013 470.791> 637 16<131 184.647>
VStem: 589 111<272.876 499.678>
LayerCount: 2
Fore
SplineSet
131 653 m 0x58
 408 653 l 0
 583 653 700 559 700 384 c 0
 700 260 638 159 540 83 c 0
 467 26 366 0 249 0 c 0xa8
 -8 0 l 0
 -8 16 l 0
 48 26 58 33 74 92 c 0
 196 537 l 0
 203 562 207 581 207 596 c 0
 207 623 192 635 131 637 c 0
 131 653 l 0x58
310 584 m 0
 192 162 l 0
 175 100 170 80 170 67 c 0
 170 41 192 30 238 30 c 0
 339 30 417 60 479 120 c 0
 550 189 589 307 589 408 c 0
 589 488 560 551 511 588 c 0
 480 611 438 623 380 623 c 0
 342 623 320 619 310 584 c 0
EndSplineSet
Validated: 1
EndChar

StartChar: E
Encoding: 69 69 37
Width: 611
Flags: W
HStem: 0 33<182.343 402.677> 0 16<-1 33.0312> 325 36<253 399.473> 620 33<322.667 551.968> 637 16<137 185.576>
VStem: 400 20<225.25 245.882> 470 18<439.386 455.556> 581 22<500.364 533.774>
LayerCount: 2
Fore
SplineSet
634 653 m 0x6f
 603 499 l 0
 581 501 l 0
 583 518 584 534 584 547 c 0
 584 607 549 620 392 620 c 0
 335 620 325 616 319 594 c 0
 253 361 l 0
 331 361 l 0
 421 361 432 373 470 458 c 0
 488 454 l 0
 420 222 l 0
 400 227 l 0
 405 249 407 261 407 279 c 0
 407 296 405 305 400 310 c 0
 389 320 362 325 322 325 c 0
 244 325 l 0
 212 213 l 0
 187 125 176 79 176 67 c 0
 176 43 199 33 255 33 c 0xb7
 353 33 407 45 458 72 c 0
 490 89 514 117 552 170 c 0
 568 162 l 0
 506 0 l 0
 -1 0 l 0
 -1 16 l 0
 55 26 64 32 80 90 c 0
 203 532 l 0
 209 552 214 584 214 596 c 0
 214 623 199 631 137 637 c 0
 137 653 l 0
 634 653 l 0x6f
EndSplineSet
Validated: 1
EndChar

StartChar: F
Encoding: 70 70 38
Width: 611
Flags: W
HStem: 0 16<8 46.726 208.709 259> 328 33<264 400.934> 620 33<335.109 561.5> 637 16<148 201.051>
VStem: 405 17<217.941 236.645> 480 18<439.135 451.944> 592 21<500.333 532.688>
LayerCount: 2
Fore
SplineSet
645 653 m 0xde
 613 499 l 0
 592 501 l 0
 595 523 595 528 595 534 c 0
 595 607 572 620 396 620 c 0xee
 350 620 335 614 328 588 c 0
 264 361 l 0
 432 363 435 365 480 455 c 0
 498 450 l 0
 422 215 l 0
 405 220 l 0
 411 251 413 265 413 281 c 0
 413 321 385 325 338 325 c 0
 316 325 292 326 255 328 c 0
 196 115 l 0
 189 90 182 70 182 55 c 0
 182 31 200 20 259 16 c 0
 259 0 l 0
 8 0 l 0
 8 16 l 0
 66 20 76 42 91 94 c 0
 214 536 l 0
 221 561 224 581 224 597 c 0
 224 625 214 631 148 637 c 0
 148 653 l 0
 645 653 l 0xde
EndSplineSet
Validated: 1
EndChar

StartChar: G
Encoding: 71 71 39
Width: 722
Flags: W
HStem: -18 37<268.766 446.956> 303 16<455 487 671.894 722> 632 34<375.457 548.08>
VStem: 52 110<142.824 366.092> 641 18<467 492.143>
LayerCount: 2
Fore
SplineSet
722 319 m 0
 722 303 l 0
 657 299 640 288 625 231 c 0
 576 44 l 0
 499 1 427 -18 339 -18 c 0
 252 -18 177 7 126 58 c 0
 79 106 52 183 52 251 c 0
 52 392 127 519 235 594 c 0
 300 639 376 666 455 666 c 0
 496 666 545 659 589 642 c 0
 612 633 622 632 633 632 c 0
 659 632 676 642 693 666 c 0
 708 661 l 0
 659 464 l 0
 641 467 l 0
 639 510 626 546 604 573 c 0
 573 611 525 632 463 632 c 0
 384 632 316 594 268 533 c 0
 203 450 162 339 162 228 c 0
 162 97 235 19 364 19 c 0
 409 19 447 31 469 53 c 0
 481 65 486 77 508 154 c 0
 528 221 534 245 534 267 c 0
 534 285 520 297 487 300 c 0
 455 303 l 0
 455 319 l 0
 722 319 l 0
EndSplineSet
Validated: 1
EndChar

StartChar: H
Encoding: 72 72 40
Width: 722
Flags: W
HStem: 0 16<-8 28.2486 194.178 237 355 401.259 580.181 629> 326 42<248 521> 637 16<131 183.049 356.791 402 521 565.545 734.078 769>
LayerCount: 2
Fore
SplineSet
769 653 m 0
 769 637 l 0
 712 627 701 621 685 563 c 0
 553 82 l 0
 551 74 550 66 550 58 c 0
 550 30 564 23 629 16 c 0
 629 0 l 0
 355 0 l 0
 355 16 l 0
 426 21 444 44 457 93 c 0
 521 326 l 0
 236 326 l 0
 170 82 l 0
 168 75 167 67 167 60 c 0
 167 31 177 24 237 16 c 0
 237 0 l 0
 -8 0 l 0
 -8 16 l 0
 48 22 60 37 78 102 c 0
 196 532 l 0
 203 559 208 581 208 596 c 0
 208 625 194 631 131 637 c 0
 131 653 l 0
 402 653 l 0
 402 637 l 0
 342 633 315 614 302 566 c 0
 248 368 l 0
 533 368 l 0
 579 532 l 0
 586 558 593 579 593 595 c 0
 593 619 577 633 521 637 c 0
 521 653 l 0
 769 653 l 0
EndSplineSet
Validated: 1
EndChar

StartChar: I
Encoding: 73 73 41
Width: 333
Flags: W
HStem: 0 16<-8 24.456 190.451 236> 637 16<137 182.991 346.68 384>
LayerCount: 2
Fore
SplineSet
384 653 m 0
 384 637 l 0
 328 630 319 621 302 560 c 0
 182 131 l 0
 173 99 167 75 167 55 c 0
 167 27 179 23 236 16 c 0
 236 0 l 0
 -8 0 l 0
 -8 16 l 0
 47 26 61 35 76 91 c 0
 196 532 l 0
 203 557 209 578 209 594 c 0
 209 619 193 634 137 637 c 0
 137 653 l 0
 384 653 l 0
EndSplineSet
Validated: 1
EndChar

StartChar: J
Encoding: 74 74 42
Width: 444
Flags: W
HStem: -18 32<91.4597 152.365> 637 16<237 286.02 453.244 491>
VStem: -6 96<15.4582 116.719>
LayerCount: 2
Fore
SplineSet
491 653 m 0
 491 637 l 0
 434 629 426 623 409 563 c 0
 306 196 l 0
 285 120 261 71 235 37 c 0
 206 -1 162 -18 111 -18 c 0
 41 -18 -6 17 -6 70 c 0
 -6 102 12 126 39 126 c 0
 66 126 90 105 90 80 c 0
 90 68 87 62 87 53 c 0
 87 25 98 14 122 14 c 0
 146 14 164 38 175 78 c 0
 302 532 l 0
 310 561 314 581 314 596 c 0
 314 623 300 631 237 637 c 0
 237 653 l 0
 491 653 l 0
EndSplineSet
Validated: 1
EndChar

StartChar: K
Encoding: 75 75 43
Width: 667
Flags: W
HStem: 0 16<7 46.2121 207.365 254 344 373 571.489 619> 637 16<147 199.242 374.018 417 501 525 689.666 722>
LayerCount: 2
Fore
SplineSet
722 653 m 0
 722 637 l 0
 697 637 674 622 645 600 c 0
 347 375 l 0
 515 82 l 0
 546 28 556 22 619 16 c 0
 619 0 l 0
 344 0 l 0
 344 16 l 0
 373 19 l 0
 404 22 419 34 419 51 c 0
 419 72 400 101 382 133 c 0
 259 348 l 0
 194 111 l 0
 186 83 183 71 183 60 c 0
 183 29 199 21 254 16 c 0
 254 0 l 0
 7 0 l 0
 7 16 l 0
 67 23 73 34 88 87 c 0
 212 532 l 0
 219 557 226 578 226 594 c 0
 226 621 209 634 147 637 c 0
 147 653 l 0
 417 653 l 0
 417 637 l 0
 365 633 333 619 318 563 c 0
 265 369 l 0
 418 478 l 0
 507 541 561 591 561 615 c 0
 561 626 549 631 525 634 c 0
 501 637 l 0
 501 653 l 0
 722 653 l 0
EndSplineSet
Validated: 1
EndChar

StartChar: L
Encoding: 76 76 44
Width: 556
Flags: W
HStem: 0 36<179.837 420.133> 0 16<-8 30.7012> 637 16<130 181.609 358.136 403>
VStem: 539 20<167.849 182.1>
LayerCount: 2
Fore
SplineSet
559 180 m 0xb0
 501 0 l 0
 -8 0 l 0
 -8 16 l 0x70
 48 22 56 31 74 94 c 0
 196 532 l 0
 204 559 207 579 207 594 c 0
 207 623 192 633 130 637 c 0
 130 653 l 0
 403 653 l 0
 403 637 l 0
 343 633 318 617 302 560 c 0
 182 131 l 0
 176 108 172 91 172 77 c 0
 172 46 195 36 277 36 c 0
 377 36 408 41 457 74 c 0
 489 95 511 128 539 186 c 0
 559 180 l 0xb0
EndSplineSet
Validated: 1
EndChar

StartChar: M
Encoding: 77 77 45
Width: 833
Flags: W
HStem: 0 16<-18 15.0625 138.674 179 463 503.969 680.162 734> 637 16<134 182.199 839.011 872>
LayerCount: 2
Fore
SplineSet
872 653 m 0
 872 637 l 0
 815 628 805 614 791 563 c 0
 668 120 l 0
 661 95 654 74 654 58 c 0
 654 32 672 18 735 16 c 0
 734 0 l 0
 463 0 l 0
 463 16 l 0
 528 23 548 40 565 102 c 0
 691 561 l 0
 315 0 l 0
 298 0 l 0
 236 546 l 0
 118 118 l 0
 113 100 109 75 109 64 c 0
 109 36 128 20 179 16 c 0
 179 0 l 0
 -18 0 l 0
 -18 16 l 0
 34 22 50 38 82 150 c 0
 196 551 l 0
 204 578 208 595 208 603 c 0
 208 622 184 634 134 637 c 0
 134 653 l 0
 315 653 l 0
 371 161 l 0
 706 653 l 0
 872 653 l 0
EndSplineSet
Validated: 1
EndChar

StartChar: N
Encoding: 78 78 46
Width: 667
Flags: W
HStem: 0 16<-20 11.3906 133 178> 637 16<117 160.91 529 573.17 697.363 727>
LayerCount: 2
Fore
SplineSet
727 653 m 0
 727 637 l 0
 664 623 662 621 625 492 c 0
 479 -15 l 0
 461 -15 l 0
 231 535 l 0
 117 113 l 0
 111 92 108 72 108 59 c 0
 108 31 126 20 178 16 c 0
 178 0 l 0
 -20 0 l 0
 -20 16 l 0
 36 24 50 40 86 168 c 0
 203 583 l 0
 188 618 164 637 117 637 c 0
 117 653 l 0
 277 653 l 0
 484 154 l 0
 590 542 l 0
 596 563 598 574 598 586 c 0
 598 622 586 632 529 637 c 0
 529 653 l 0
 727 653 l 0
EndSplineSet
Validated: 1
EndChar

StartChar: O
Encoding: 79 79 47
Width: 722
Flags: W
HStem: -18 33<230.876 367.024> 633 33<395.815 526.724>
VStem: 60 105<104.92 322.435> 594 105<336.956 537.182>
LayerCount: 2
Fore
SplineSet
699 418 m 0
 699 272 611 133 492 53 c 0
 427 9 352 -18 278 -18 c 0
 148 -18 60 67 60 216 c 0
 60 338 133 478 237 569 c 0
 306 629 389 666 474 666 c 0
 476.202 666.008 l 0
 618.825 666.008 699 569.224 699 418 c 0
594 481 m 0
 594 575 545 633 465 633 c 0
 391 633 328 582 279 516 c 0
 206 417 165 284 165 184 c 0
 165 75 211 15 295 15 c 0
 362 15 419 54 465 110 c 0
 549 214 594 379 594 481 c 0
EndSplineSet
Validated: 524289
EndChar

StartChar: P
Encoding: 80 80 48
Width: 611
Flags: W
HStem: 0 16<0 36.33 204.068 244> 305 37<251.976 419.751> 623 30<327.866 444.521> 637 16<146 189.245>
VStem: 502 103<420.745 579.514>
LayerCount: 2
Fore
SplineSet
146 653 m 0xd8
 387 653 l 0xe8
 534 653 605 601 605 505 c 0
 605 451 578 396 537 362 c 0
 491 324 421 305 332 305 c 0
 290 305 268 307 242 313 c 0
 189 120 l 0
 182 93 175 72 175 57 c 0
 175 34 190 22 244 16 c 0
 244 0 l 0
 0 0 l 0
 0 16 l 0
 57 24 66 33 84 98 c 0
 200 512 l 0
 213 559 217 580 217 595 c 0
 217 622 203 630 146 637 c 0
 146 653 l 0xd8
320 592 m 0
 251 347 l 0
 280 342 285 342 303 342 c 0
 365 342 400 348 431 366 c 0
 475 391 502 435 502 500 c 0
 502 589 454 623 372 623 c 0
 344 623 326 615 320 592 c 0
EndSplineSet
Validated: 1
EndChar

StartChar: Q
Encoding: 81 81 49
Width: 722
Flags: W
HStem: -182 68<369.298 533.177> -138 65<225 287.638> 633 33<388.643 529.575>
VStem: 60 105<109.488 317.806> 594 105<337.934 535.176>
LayerCount: 2
Fore
SplineSet
69 -169 m 0x78
 59 -153 l 0
 136 -99 145 -92 236 -12 c 0
 122 11 60 96 60 225 c 0
 60 348 124 478 233 572 c 0
 310 637 398 666 474 666 c 0
 611 666 699 564 699 429 c 0
 699 273 595 107 443 27 c 0
 389 -2 354 -11 279 -16 c 0
 225 -73 l 0
 250 -73 l 0x78
 284 -73 329 -83 373 -93 c 0
 414 -103 451 -114 484 -114 c 0
 556 -114 596 -95 652 -37 c 0
 668 -48 l 0
 653 -69 636 -89 616 -107 c 0
 566 -152 502 -182 425 -182 c 0xb8
 387 -182 334 -174 277 -156 c 0
 234 -142 204 -138 184 -138 c 0
 144 -138 107 -148 69 -169 c 0x78
594 480 m 0
 594 575 545 633 465 633 c 0
 390 633 328 593 271 508 c 0
 213 421 165 283 165 183 c 0
 165 82 215 17 289 17 c 0
 364 17 431 58 487 141 c 0
 549 234 594 377 594 480 c 0
EndSplineSet
Validated: 1
EndChar

StartChar: R
Encoding: 82 82 50
Width: 611
Flags: W
HStem: 0 16<-13 21.2344 189.203 230 529.824 567> 329 32<243 297> 623 30<315.192 430.432> 637 16<132 176.632>
VStem: 483 105<435.23 582.768>
LayerCount: 2
Fore
SplineSet
132 653 m 0xd8
 384 653 l 0
 516 653 588 597 588 512 c 0
 588 464 563 415 522 384 c 0
 491 360 458 348 391 333 c 0
 480 98 l 0
 502 39 522 16 567 16 c 0
 567 0 l 0
 420 0 l 0
 297 324 l 0
 231 329 l 0
 176 126 l 0
 165 87 163 73 163 63 c 0
 163 33 173 22 230 16 c 0
 230 0 l 0
 -13 0 l 0
 -13 16 l 0
 42 23 56 42 72 101 c 0
 191 532 l 0
 198 559 203 578 203 595 c 0
 203 606 196 618 189 623 c 0xe8
 178 630 174 631 132 637 c 0
 132 653 l 0xd8
306 593 m 0
 243 366 l 0
 268 362 276 361 294 361 c 0
 413 361 483 418 483 511 c 0
 483 580 441 623 363 623 c 0
 332 623 311 612 306 593 c 0
EndSplineSet
Validated: 1
EndChar

StartChar: S
Encoding: 83 83 51
Width: 500
Flags: W
HStem: -18 35<145.367 281.812> 633 33<264.17 399.312>
VStem: 131 88<462.514 586.397> 344 87<86.3216 220.151> 450 18<470 502>
LayerCount: 2
Fore
SplineSet
508 667 m 0
 468 467 l 0
 450 470 l 0
 450 572 428 633 331 633 c 0
 262 633 219 596 219 533 c 0
 219 484 227 468 318 377 c 0
 409 285 431 242 431 177 c 0
 431 63 344 -18 229 -18 c 0
 198 -18 171 -11 125 5 c 0
 98 15 89 17 78 17 c 0
 58 17 42 8 35 -15 c 0
 17 -15 l 0
 51 209 l 0
 71 207 l 0
 69 198 69 191 69 184 c 0
 69 86 129 17 213 17 c 0
 290 17 344 69 344 145 c 0
 344 188 330 218 284 268 c 0
 245 310 l 0
 231 325 219 339 206 352 c 0
 146 416 131 448 131 502 c 0
 131 607 213 666 309 666 c 0
 340 666 373 661 394 652 c 0
 415 644 427 641 440 641 c 0
 462 641 471 646 485 667 c 0
 508 667 l 0
EndSplineSet
Validated: 1
EndChar

StartChar: T
Encoding: 84 84 52
Width: 556
Flags: W
HStem: 0 16<65 113.148 318 353> 618 35<164.619 315 416 543.845>
VStem: 59 18<496.444 513.19> 572 17<490.176 515.091>
LayerCount: 2
Fore
SplineSet
633 653 m 0
 589 489 l 0
 572 491 l 0
 574 508 575 524 575 537 c 0
 575 590 539 618 474 618 c 0
 416 618 l 0
 279 128 l 0
 273 107 265 84 265 62 c 0
 265 31 277 23 318 19 c 0
 353 16 l 0
 353 0 l 0
 65 0 l 0
 65 16 l 0
 134 22 157 37 172 91 c 0
 315 618 l 0
 157 618 125 602 77 494 c 0
 59 498 l 0
 101 653 l 0
 633 653 l 0
EndSplineSet
Validated: 1
EndChar

StartChar: U
Encoding: 85 85 53
Width: 722
Flags: W
HStem: -18 41<251.648 418.959> 637 16<127 181.064 356.734 399 567 609.666 735.636 765>
VStem: 102 90<75.7128 251.774>
LayerCount: 2
Fore
SplineSet
765 653 m 0
 765 637 l 0
 703 623 699 618 661 488 c 0
 578 203 l 0
 556 128 524 70 481 34 c 0
 438 -3 388 -18 323 -18 c 0
 192 -18 102 51 102 146 c 0
 102 200 120 267 146 362 c 0
 198 551 l 0
 203 569 207 584 207 596 c 0
 207 622 189 635 127 637 c 0
 127 653 l 0
 399 653 l 0
 399 637 l 0
 331 630 314 615 295 546 c 0
 232 320 l 0
 205 225 192 163 192 141 c 0
 192 70 252 23 330 23 c 0
 443 23 505 91 550 255 c 0
 614 488 l 0
 630 547 637 582 637 591 c 0
 637 621 620 632 567 637 c 0
 567 653 l 0
 765 653 l 0
EndSplineSet
Validated: 1
EndChar

StartChar: V
Encoding: 86 86 54
Width: 611
Flags: W
HStem: 637 16<76 110.775 272.143 316 503 542.393 661.162 688>
LayerCount: 2
Fore
SplineSet
688 653 m 0
 688 637 l 0
 665 636 649 624 632 597 c 0
 259 -18 l 0
 240 -18 l 0
 158 485 l 0
 135 625 132 630 76 637 c 0
 76 653 l 0
 316 653 l 0
 316 637 l 0
 253 630 240 620 240 586 c 0
 240 581 240 576 241 571 c 0
 306 128 l 0
 516 488 l 0
 547 541 565 584 565 603 c 0
 565 622 548 632 503 637 c 0
 503 653 l 0
 688 653 l 0
EndSplineSet
Validated: 1
EndChar

StartChar: W
Encoding: 87 87 55
Width: 833
Flags: W
HStem: 637 16<71 111.511 262.221 306 368 416.957 562.768 604 722 766.441 884.59 906>
LayerCount: 2
Fore
SplineSet
906 653 m 0
 906 637 l 0
 868 625 858 617 829 562 c 0
 528 -18 l 0
 508 -18 l 0
 458 435 l 0
 453 435 l 0
 231 -18 l 0
 212 -18 l 0
 151 496 l 0
 140 590 136 607 122 622 c 0
 113 631 103 633 71 637 c 0
 71 653 l 0
 306 653 l 0
 306 637 l 0
 255 632 234 624 234 586 c 0
 234 581 234 573 235 566 c 0
 279 162 l 0
 451 510 l 0
 443 575 l 0
 437 626 426 635 368 637 c 0
 368 653 l 0
 604 653 l 0
 604 637 l 0
 553 632 536 621 536 589 c 0
 536 583 538 577 538 574 c 0
 578 162 l 0
 766 527 l 0
 779 552 789 576 789 595 c 0
 789 620 772 636 722 637 c 0
 722 653 l 0
 906 653 l 0
EndSplineSet
Validated: 1
EndChar

StartChar: X
Encoding: 88 88 56
Width: 611
Flags: W
HStem: 0 16<-29 -1.98932 134.002 184 296 352.236 523.217 567> 637 16<76 118.153 298.161 339 448 488.498 635.539 655>
LayerCount: 2
Fore
SplineSet
655 653 m 0
 655 637 l 0
 612 623 580 600 530 542 c 0
 361 348 l 0
 462 93 l 0
 486 33 499 24 567 16 c 0
 567 0 l 0
 296 0 l 0
 296 16 l 0
 356 17 373 29 373 53 c 0
 373 66 367 84 359 104 c 0
 292 269 l 0
 141 97 l 0
 127 81 118 63 118 49 c 0
 118 27 136 16 184 16 c 0
 184 0 l 0
 -29 0 l 0
 -29 16 l 0
 27 26 54 56 191 216 c 0
 274 313 l 0
 171 568 l 0
 152 616 134 632 76 637 c 0
 76 653 l 0
 339 653 l 0
 339 637 l 0
 284 630 268 621 268 596 c 0
 268 583 273 567 284 540 c 0
 343 393 l 0
 488 560 l 0
 502 576 509 591 509 603 c 0
 509 622 491 635 448 637 c 0
 448 653 l 0
 655 653 l 0
EndSplineSet
Validated: 1
EndChar

StartChar: Y
Encoding: 89 89 57
Width: 556
Flags: W
HStem: 0 16<78 128.437 331 367> 637 16<91 127.697 282.239 330 444 473>
LayerCount: 2
Fore
SplineSet
633 653 m 0
 633 637 l 0
 604 627 596 617 563 576 c 0
 344 306 l 0
 308 183 l 0
 285 104 278 77 278 56 c 0
 278 31 292 22 331 19 c 0
 367 16 l 0
 367 0 l 0
 78 0 l 0
 78 16 l 0
 144 20 167 33 185 97 c 0
 244 302 l 0
 168 569 l 0
 153 621 147 629 91 637 c 0
 91 653 l 0
 330 653 l 0
 330 637 l 0
 270 631 258 623 258 601 c 0
 258 586 270 542 294 457 c 0
 325 347 l 0
 364 393 l 0
 469 517 513 579 513 606 c 0
 513 623 502 631 473 634 c 0
 444 637 l 0
 444 653 l 0
 633 653 l 0
EndSplineSet
Validated: 1
EndChar

StartChar: Z
Encoding: 90 90 58
Width: 556
Flags: W
HStem: 0 36<123 432.363> 617 36<177.054 473>
VStem: 75 19<504.158 518.893> 534 19<154.283 170.105>
LayerCount: 2
Fore
SplineSet
606 639 m 0
 123 36 l 0
 284 36 l 0
 371 36 419 40 457 68 c 0
 484 88 510 123 534 172 c 0
 553 169 l 0
 499 0 l 0
 -6 0 l 0
 -6 14 l 0
 473 617 l 0
 302 617 l 0
 238 617 190 610 160 590 c 0
 129 569 121 553 94 501 c 0
 75 506 l 0
 120 653 l 0
 606 653 l 0
 606 639 l 0
EndSplineSet
Validated: 1
EndChar

StartChar: bracketleft
Encoding: 91 91 59
Width: 389
Flags: W
HStem: -153 27<115.919 209> 636 27<286.021 384>
LayerCount: 2
Fore
SplineSet
391 663 m 0
 384 636 l 0
 322 636 l 0
 293 636 281 624 275 598 c 0
 117 -69 l 0
 113 -85 111 -95 111 -98 c 0
 111 -117 128 -126 160 -126 c 0
 216 -126 l 0
 209 -153 l 0
 21 -153 l 0
 218 663 l 0
 391 663 l 0
EndSplineSet
Validated: 1
EndChar

StartChar: backslash
Encoding: 92 92 60
Width: 278
Flags: W
HStem: 646 20G<-41 39.4211>
LayerCount: 2
Fore
SplineSet
319 -18 m 0
 248 -18 l 0
 -41 666 l 0
 31 666 l 0
 319 -18 l 0
EndSplineSet
Validated: 1
EndChar

StartChar: bracketright
Encoding: 93 93 61
Width: 389
Flags: W
HStem: -153 27<19 116.262> 636 27<193 288.181>
LayerCount: 2
Fore
SplineSet
382 663 m 0
 185 -153 l 0
 12 -153 l 0
 19 -126 l 0
 81 -126 l 0
 111 -126 121 -114 128 -85 c 0
 288 585 l 0
 292 601 292 606 292 610 c 0
 292 628 276 636 243 636 c 0
 186 636 l 0
 193 663 l 0
 382 663 l 0
EndSplineSet
Validated: 1
EndChar

StartChar: asciicircum
Encoding: 94 94 62
Width: 422
Flags: W
HStem: 646 20G<171.082 250.918>
LayerCount: 2
Fore
SplineSet
422 301 m 0
 354 301 l 0
 211 590 l 0
 210 590 l 0
 68 301 l 0
 0 301 l 0
 181 666 l 0
 241 666 l 0
 422 301 l 0
EndSplineSet
Validated: 1
EndChar

StartChar: underscore
Encoding: 95 95 63
Width: 500
Flags: W
HStem: -125 50<0 500>
LayerCount: 2
Fore
SplineSet
500 -125 m 0
 0 -125 l 0
 0 -75 l 0
 500 -75 l 0
 500 -125 l 0
EndSplineSet
Validated: 1
EndChar

StartChar: grave
Encoding: 96 96 64
Width: 333
Flags: W
HStem: 492 172
VStem: 120 191
LayerCount: 2
Fore
SplineSet
311 492 m 0
 279 492 l 0
 139 598 l 0
 126 608 120 618 120 630 c 0
 120 652 136 664 156 664 c 0
 171 664 183 658 196 641 c 0
 311 492 l 0
EndSplineSet
Validated: 1
EndChar

StartChar: a
Encoding: 97 97 65
Width: 501
Flags: W
HStem: -10 48<114.08 195.374 339.502 393.993> 419 22<264.099 343.933>
VStem: 17 84<49.4641 210.33> 297 73<11.6641 146.623>
LayerCount: 2
Fore
SplineSet
463 111 m 0
 476 100 l 0
 401 9 377 -10 337 -10 c 0
 309 -10 297 2 297 31 c 0
 297 56 299 64 320 146 c 0
 245 33 187 -11 117 -11 c 0
 61 -11 17 29 17 105 c 0
 17 260 170 441 303 441 c 0
 346 441 375 420 383 383 c 0
 394 431 l 0
 397 434 l 0
 458 441 l 0
 465 438 l 0
 463 429 462 427 459 417 c 0
 412 246 370 74 370 54 c 0
 370 47 376 41 384 41 c 0
 393 41 406 49 436 82 c 0
 463 111 l 0
365 361 m 0
 365 396 344 419 309 419 c 0
 264 419 220 388 178 327 c 0
 136 264 101 175 101 112 c 0
 101 57 125 38 161 38 c 0
 211 38 258 93 288 136 c 0
 335 204 365 290 365 361 c 0
EndSplineSet
Validated: 1
EndChar

StartChar: b
Encoding: 98 98 66
Width: 500
Flags: W
HStem: -11 23<117.058 206.48> 392 49<277.617 369.976> 643 17<110 167.53> 663 20G<238 268>
VStem: 23 86<15.295 73.7817> 388 85<218.207 374.691>
LayerCount: 2
Fore
SplineSet
163 290 m 0
 164 290 l 0
 232 403 287 441 357 441 c 0
 424 441 473 398 473 321 c 0
 473 163 308 -11 153 -11 c 0
 96 -11 23 12 23 42 c 0
 23 48 l 0
 165 571 l 0
 171 595 174 609 174 618 c 0
 174 640 169 641 110 643 c 0
 110 660 l 0
 177 668 213 674 263 683 c 0
 268 678 l 0
 247 596 l 0
 163 290 l 0
388 306 m 0
 388 367 362 392 318 392 c 0
 270 392 224 350 181 277 c 0
 137 203 109 106 109 46 c 0
 109 23 124 12 155 12 c 0
 198 12 241 33 278 71 c 0
 338 133 388 232 388 306 c 0
EndSplineSet
Validated: 1
EndChar

StartChar: c
Encoding: 99 99 67
Width: 444
Flags: W
HStem: -11 36<151.838 262.259> 420 21<264.264 348.337>
VStem: 30 86<57.8344 247.83> 353 72<336.454 411.084>
LayerCount: 2
Fore
SplineSet
350 107 m 0
 366 97 l 0
 305 20 252 -11 177 -11 c 0
 84 -11 30 41 30 143 c 0
 30 236 82 323 153 380 c 0
 202 419 259 441 320 441 c 0
 381 441 425 407 425 360 c 0
 425 333 403 312 377 312 c 0
 349 312 338 332 338 352 c 0
 338 370 353 381 353 400 c 0
 353 412 339 420 316 420 c 0
 276 420 236 402 207 372 c 0
 151 313 116 228 116 139 c 0
 116 67 148 25 205 25 c 0
 258 25 296 50 350 107 c 0
EndSplineSet
Validated: 1
EndChar

StartChar: d
Encoding: 100 100 68
Width: 500
Flags: W
HStem: -13 53<115.13 198.668 332.502 390.733> 418 23<267.365 336.791> 643 17<368 423.546> 663 20G<494.5 527>
VStem: 15 87<50.5649 211.441> 287 76<11.5356 132.465>
LayerCount: 2
Fore
SplineSet
521 683 m 0
 527 677 l 0
 488 525 l 0
 428 306 l 0
 397 192 363 76 363 60 c 0
 363 48 368 40 381 40 c 0
 398 40 409 49 463 111 c 0
 475 101 l 0
 426 28 378 -13 328 -13 c 0
 302 -13 287 5 287 32 c 0
 287 55 289 71 300 121 c 0
 241 22 190 -11 122 -11 c 0
 57 -11 15 30 15 106 c 0
 15 268 177 441 307 441 c 0
 349 441 366 422 372 383 c 0
 373 383 l 0
 418 546 l 0
 431.235 592.765 432.014 601.381 432.014 612.378 c 0
 432.014 613.844 432 615.353 432 617 c 0
 432 638 423 641 368 643 c 0
 368 660 l 0
 432 666 468 672 521 683 c 0
356 361 m 0
 356 397 332 418 309 418 c 0
 281 418 246 401 218 372 c 0
 152 302 102 193 102 110 c 0
 102 64 125 37 160 37 c 0
 252 37 356 209 356 361 c 0
EndSplineSet
Validated: 524289
EndChar

StartChar: e
Encoding: 101 101 69
Width: 444
Flags: W
HStem: -11 45<147.076 265.42> 418 23<273.286 339.569>
VStem: 31 87<63.4631 202.374> 346 66<317.18 416.026>
LayerCount: 2
Fore
SplineSet
358 109 m 0
 370 97 l 0
 313 27 249 -11 166 -11 c 0
 85 -11 31 43 31 126 c 0
 31 281 180 441 330 441 c 0
 383 441 412 415 412 373 c 0
 412 287 307 209 128 186 c 0
 118 166 118 140 118 125 c 0
 118 70 155 34 211 34 c 0
 255 34 286 50 358 109 c 0
152 252 m 0
 135 208 l 0
 221 229 259 247 296 282 c 0
 327 312 346 348 346 379 c 0
 346 403 339 418 311 418 c 0
 254 418 186 341 152 252 c 0
EndSplineSet
Validated: 1
EndChar

StartChar: f
Encoding: 102 102 70
Width: 278
Flags: W
HStem: -207 21<-78.614 -30.6977> 396 32<41 125 211 312> 656 22<298.576 354.203>
VStem: -147 67<-185.67 -124.889> 355 69<595.932 655.509>
LayerCount: 2
Fore
SplineSet
41 428 m 0
 134 428 l 0
 156 499 173 554 206 601 c 0
 236 644 277 678 338 678 c 0
 387 678 424 652 424 616 c 0
 424 594 405 573 382 573 c 0
 364 573 345 588 345 612 c 0
 345 629 355 634 355 643 c 0
 355 651 347 656 333 656 c 0
 277 656 240 586 211 428 c 0
 318 428 l 0
 312 396 l 0
 204 396 l 0
 132 76 l 0
 90 -109 23 -207 -68 -207 c 0
 -113 -207 -147 -181 -147 -146 c 0
 -147 -123 -130 -104 -109 -104 c 0
 -86 -104 -71 -120 -71 -141 c 0
 -71 -154 -80 -159 -80 -170 c 0
 -80 -179 -72 -186 -60 -186 c 0
 -18 -186 14 -132 37 -24 c 0
 125 396 l 0
 34 396 l 0
 41 428 l 0
EndSplineSet
Validated: 1
EndChar

StartChar: g
Encoding: 103 103 71
Width: 500
Flags: W
HStem: -206 22<122.058 254.159> 151 21<199.965 272.824> 366 39<422 471> 419 22<255.466 332.949>
VStem: 8 55<-147.374 -32.6123> 98 74<71.5 125.069 197.887 338.859> 325 60<-128.432 -40.449> 352 79<253.236 364.657>
LayerCount: 2
Fore
SplineSet
471 366 m 0xfe
 422 366 l 0
 431 348 431 332 431 315 c 0xfd
 431 231 339 151 246 151 c 0
 235 151 224 152 215 154 c 0
 212 155 210 155 208 155 c 0
 191 155 172 135 172 114 c 0
 172 96 199 83 243 72 c 0
 339 49 385 5 385 -55 c 0
 385 -142 308 -206 175 -206 c 0
 73 -206 8 -170 8 -98 c 0
 8 -47 27 -20 125 39 c 0
 107 50 98 65 98 78 c 0
 98 107 121 137 175 162 c 0
 119 182 96 218 96 270 c 0
 96 372 196 441 297 441 c 0
 335 441 368 432 395 413 c 0
 403 407 408 405 411 405 c 0
 471 405 l 0
 471 366 l 0xfe
352 348 m 0
 352 401 333 419 296 419 c 0
 234 419 174 346 174 247 c 0
 174 200 196 172 234 172 c 0
 268 172 295 190 319 231 c 0
 339 265 352 306 352 348 c 0
325 -90 m 0xfe
 325 -44 289 -16 182 17 c 0
 169 21 159 24 148 28 c 0
 139 28 97 -6 83 -24 c 0
 68 -43 63 -59 63 -82 c 0
 63 -152 110 -184 190 -184 c 0
 271 -184 325 -141 325 -90 c 0xfe
EndSplineSet
Validated: 1
EndChar

StartChar: h
Encoding: 104 104 72
Width: 500
Flags: W
HStem: -9 47<318.5 397.22> 0 21G<19 114> 390 51<316.937 406> 641 15<110 165.723> 663 20G<238 274>
VStem: 288 79<14.2522 131.325> 370 78<276.899 389.435>
LayerCount: 2
Fore
SplineSet
465 118 m 0xbe
 478 105 l 0
 417 18 383 -9 332 -9 c 0xbe
 305 -9 288 7 288 33 c 0
 288 45 295 76 308 125 c 0
 363 332 l 0
 367 348 370 361 370 365 c 0
 370 380 365 390 342 390 c 0
 306 390 242 329 190 250 c 0
 150 189 134 154 94 0 c 0
 19 0 l 0x7e
 165 554 l 0
 173 585 178 602 178 616 c 0
 178 633 155 641 137 641 c 0
 110 641 l 0
 110 656 l 0
 170 663 209 670 267 683 c 0
 274 677 l 0
 153 230 l 0
 243 376 321 441 383 441 c 0
 429 441 448 411 448 374 c 0
 448 349 430 275 400 181 c 0
 383 129 367 67 367 56 c 0
 367 46 374 38 383 38 c 0
 399 38 411 50 465 118 c 0xbe
EndSplineSet
Validated: 1
EndChar

StartChar: i
Encoding: 105 105 73
Width: 278
Flags: W
HStem: -11 47<81.5 159.147> 400 16<64 120.75> 421 20G<173.5 228> 548 106<175.38 253.146>
VStem: 49 75<36.6443 137.623> 167 97<557.456 643.469>
LayerCount: 2
Fore
SplineSet
264 599 m 0
 264 571 241 548 215 548 c 0
 186 548 167 569 167 601 c 0
 167 632 187 654 214 654 c 0
 241 654 264 628 264 599 c 0
222 114 m 0
 235 103 l 0
 180 19 148 -11 98 -11 c 0
 65 -11 49 7 49 44 c 0
 49 64 56 99 71 155 c 0
 119 332 l 0
 124 350 128 368 128 376 c 0
 128 396 118 399 64 400 c 0
 64 416 l 0
 103 419 123 422 224 441 c 0
 228 438 l 0
 134 95 l 0
 129 78 124 65 124 51 c 0
 124 41 130 36 138 36 c 0
 155 36 179 57 222 114 c 0
EndSplineSet
Validated: 1
EndChar

StartChar: j
Encoding: 106 106 74
Width: 278
Flags: W
HStem: -207 22<-55.7317 -9.56441> 400 16<73 135.417> 421 20G<200 246> 548 104<185.133 267.762>
VStem: -124 68<-184.817 -123.692> 175 104<558.114 641.305>
LayerCount: 2
Fore
SplineSet
279 598 m 0
 279 571 255 548 229 548 c 0
 199 548 175 569 175 600 c 0
 175 630 200 652 228 652 c 0
 255 652 279 626 279 598 c 0
246 438 m 0
 142 28 l 0
 101 -134 42 -207 -45 -207 c 0
 -91 -207 -124 -182 -124 -146 c 0
 -124 -122 -106 -102 -83 -102 c 0
 -56 -102 -44 -118 -44 -139 c 0
 -44 -161 -56 -158 -56 -173 c 0
 -56 -180 -50 -185 -38 -185 c 0
 2 -185 25 -141 59 -3 c 0
 131 289 l 0
 143 338 147 359 147 369 c 0
 147 391 135 400 99 400 c 0
 73 400 l 0
 73 416 l 0
 105 418 158 426 242 441 c 0
 246 438 l 0
EndSplineSet
Validated: 1
EndChar

StartChar: k
Encoding: 107 107 75
Width: 444
Flags: W
HStem: -11 52<303.5 369.871> 0 21G<14 94.3333> 412 16<282 328.304 424.46 461> 640 16<104 161.717> 663 20G<231.5 267>
LayerCount: 2
Fore
SplineSet
461 428 m 0x78
 461 412 l 0
 414 409 383 389 236 258 c 0
 273 170 l 0
 312 78 335 41 354 41 c 0
 369 41 381 52 399 83 c 0
 404 91 409 100 414 109 c 0
 429 98 l 0
 383 14 358 -11 318 -11 c 0xb8
 289 -11 269 8 237 71 c 0
 219 106 193 168 177 212 c 0
 137 180 l 0
 89 0 l 0
 14 0 l 0
 155 528 l 0
 168 576 171 599 173 616 c 0
 171 634 156 640 122 640 c 0
 104 640 l 0
 104 656 l 0
 163 663 202 670 261 683 c 0
 267 677 l 0
 147 221 l 0
 190 254 l 0
 284 326 333 374 333 394 c 0
 333 405 321 412 296 412 c 0
 282 412 l 0
 282 428 l 0
 461 428 l 0x78
EndSplineSet
Validated: 1
EndChar

StartChar: l
Encoding: 108 108 76
Width: 278
Flags: W
HStem: -11 43<74 155.292> 640 16<118 174.715> 663 20G<243.5 279>
VStem: 41 77<32.7555 139.602>
LayerCount: 2
Fore
SplineSet
279 678 m 0
 126 93 l 0
 121 75 118 58 118 50 c 0
 118 38 125 32 135 32 c 0
 150 32 173 48 202 89 c 0
 227 124 l 0
 241 114 l 0
 181 19 144 -11 90 -11 c 0
 58 -11 41 8 41 45 c 0
 41 53 42 65 45 75 c 0
 182 599 l 0
 185 609 185 615 185 618 c 0
 185 630 168 640 136 640 c 0
 118 640 l 0
 118 656 l 0
 177 663 214 670 273 683 c 0
 279 678 l 0
EndSplineSet
Validated: 1
EndChar

StartChar: m
Encoding: 109 109 77
Width: 722
Flags: W
HStem: -9 47<542 610.846> 0 21G<12 111 259 353.5> 389 52<308.057 382.419 548.719 621.997> 394 16<44 80.5806>
VStem: 354 77<285.303 388.3> 515 76<15.6746 136.57> 593 79<281.836 388.433>
LayerCount: 2
Fore
SplineSet
704 105 m 0xae
 699 98 l 0
 646 24 602 -9 555 -9 c 0xae
 529 -9 515 7 515 37 c 0
 515 47 518 64 528 103 c 0
 586 330 l 0
 591 350 593 363 593 368 c 0
 593 380 584 389 573 389 c 0
 543 389 492 342 442 272 c 0
 393 203 373 154 334 0 c 0
 259 0 l 0
 286 93 l 0
 330 245 354 351 354 364 c 0
 354 380 345 389 332 389 c 0x6e
 298 389 239 331 183 246 c 0
 149 194 135 158 87 0 c 0
 12 0 l 0
 55 144 l 0
 95 277 110 360 110 372 c 0
 110 387 96 394 69 394 c 0
 44 394 l 0
 44 410 l 0x5e
 206 441 l 0
 209 439 l 0
 151 230 l 0
 240 375 310 441 371 441 c 0
 411 441 431 417 431 381 c 0
 431 362 418 306 391 229 c 0
 461 340 502 390 551 421 c 0
 575 436 594 441 614 441 c 0
 651 441 672 414 672 378 c 0
 672 371 670 355 669 350 c 0
 601 99 l 0
 595 76 591 58 591 54 c 0
 591 43 595 38 603 38 c 0
 620 38 638 54 668 91 c 0
 689 117 l 0
 704 105 l 0xae
EndSplineSet
Validated: 1
EndChar

StartChar: n
Encoding: 110 110 78
Width: 500
Flags: W
HStem: -9 47<321.5 395.966> 0 21G<14 112.5> 390 51<311.934 398.5> 394 16<47 87.4118>
VStem: 287 75<18.0365 139.727> 361 81<277.852 389.876>
LayerCount: 2
Fore
SplineSet
460 117 m 0xa8
 474 104 l 0
 406 11 381 -9 334 -9 c 0
 309 -9 287 7 287 45 c 0xa8
 287 55 289 68 303 120 c 0
 347 282 l 0
 355 313 361 349 361 361 c 0
 361 379 352 390 337 390 c 0xa4
 297 390 252 341 189 248 c 0
 144 181 136 158 89 0 c 0
 14 0 l 0
 110 350 l 0
 111 355 112 361 112 367 c 0
 112 387 98 393 47 394 c 0
 47 410 l 0x54
 128 426 156 430 209 441 c 0
 213 439 l 0
 146 221 l 0
 246 381 313 441 377 441 c 0
 420 441 442 416 442 380 c 0x24
 442 362 438 341 432 320 c 0
 376 117 l 0
 366 81 362 64 362 56 c 0
 362 47 366 38 378 38 c 0
 392 38 410 54 439 91 c 0
 446 99 453 108 460 117 c 0xa8
EndSplineSet
Validated: 1
EndChar

StartChar: o
Encoding: 111 111 79
Width: 500
Flags: W
HStem: -11 21<148.543 232.34> 420 21<269.916 349.61>
VStem: 27 84<45.8135 221.901> 384 84<200.916 380.935>
LayerCount: 2
Fore
SplineSet
468 301 m 0
 468 225 428 137 362 72 c 0
 304 14 240 -11 174 -11 c 0
 80 -11 27 41 27 128 c 0
 27 240 102 355 207 411 c 0
 246 432 286 441 327 441 c 0
 408 441 468 389 468 301 c 0
384 326 m 0
 384 387 356 420 313 420 c 0
 269 420 225 389 185 329 c 0
 139 259 111 180 111 101 c 0
 111 41 142 10 189 10 c 0
 233 10 271 39 310 93 c 0
 356 156 384 250 384 326 c 0
EndSplineSet
Validated: 1
EndChar

StartChar: p
Encoding: 112 112 80
Width: 504
Flags: W
HStem: -205 16<-75 -37.752 76.8211 128> -11 19<135.969 214.987> 398 43<277.284 367.531> 404 15<58 105.636>
VStem: 382 90<208.344 384.961>
LayerCount: 2
Fore
SplineSet
215 428 m 0xe8
 186 328 l 0
 240 409 297 441 357 441 c 0xe8
 431 441 472 394 472 316 c 0
 472 151 321 -11 175 -11 c 0
 152 -11 131 -7 106 6 c 0
 89 -64 66 -146 66 -160 c 0
 66 -182 81 -189 128 -189 c 0
 128 -205 l 0
 -75 -205 l 0
 -75 -189 l 0
 -32 -188 -19 -173 -7 -126 c 0
 108 306 l 0
 119 346 124 372 124 377 c 0
 124 401 96 404 80 404 c 0
 58 404 l 0
 56 419 l 0xd8
 212 441 l 0
 215 441 217 439 217 437 c 0
 217 437 216 432 215 428 c 0xe8
382 313 m 0
 382 370 365 398 320 398 c 0
 267 398 208 344 185 284 c 0
 156 209 120 80 120 46 c 0
 120 24 140 8 168 8 c 0
 221 8 269 41 313 103 c 0
 361 170 382 243 382 313 c 0
EndSplineSet
Validated: 1
EndChar

StartChar: q
Encoding: 113 113 81
Width: 500
Flags: W
HStem: -209 16<152 200.571 332.541 389> -11 53<92.8125 209.129> 408 20G<404.469 484> 419 22<282.818 354.547>
VStem: 25 86<53.6508 209.407>
LayerCount: 2
Fore
SplineSet
484 428 m 0xe8
 319 -151 l 0
 318 -155 317 -159 317 -162 c 0
 317 -181 337 -193 374 -193 c 0
 389 -193 l 0
 389 -209 l 0
 152 -209 l 0
 152 -193 l 0
 215 -189 232 -174 243 -137 c 0
 333 153 l 0
 253 26 202 -11 125 -11 c 0
 62 -11 25 34 25 105 c 0
 25 263 181 441 318 441 c 0xd8
 359 441 385 424 395 379 c 0
 411 428 l 0
 484 428 l 0xe8
380 359 m 0
 380 392 354 419 321 419 c 0
 292 419 260 400 228 370 c 0
 160 305 111 202 111 119 c 0
 111 72 127 42 164 42 c 0
 189 42 220 55 246 78 c 0
 314 137 380 276 380 359 c 0
EndSplineSet
Validated: 1
EndChar

StartChar: r
Encoding: 114 114 82
Width: 389
Flags: W
HStem: 0 21G<45 146> 376 65<312.39 379> 397 17<73 103.625>
LayerCount: 2
Fore
SplineSet
176 223 m 0xc0
 192 258 l 0
 211 300 245 353 286 396 c 0
 312 423 342 441 365 441 c 0
 393 441 412 420 412 390 c 0
 412 360 395 336 365 336 c 0
 347 336 339 347 330 362 c 0
 324 372 321 376 314 376 c 0xc0
 296 376 268 343 232 282 c 0
 189 208 171 168 121 0 c 0
 45 0 l 0
 126 292 l 0
 140 344 142 353 142 374 c 0
 142 395 124 400 104 400 c 0
 96 400 88 399 73 397 c 0
 73 414 l 0xa0
 228 441 l 0
 231 439 l 0
 176 223 l 0xc0
EndSplineSet
Validated: 1
EndChar

StartChar: s
Encoding: 115 115 83
Width: 389
Flags: W
HStem: -11 21<112.357 193.622> 418 23<203.011 282.809>
VStem: 36 16<109.089 146> 109 73<301.094 399.949> 228 76<47.1122 152.532> 330 16<302 343.526>
LayerCount: 2
Fore
SplineSet
366 442 m 0
 346 302 l 0
 330 302 l 0
 320 385 290 418 241 418 c 0
 206 418 182 398 182 361 c 0
 182 334 197 305 236 259 c 0
 286 201 304 162 304 123 c 0
 304 40 243 -11 160 -11 c 0
 143 -11 128 -10 105 -1 c 0
 86 7 72 8 61 8 c 0
 50 8 39 3 32 -13 c 0
 16 -13 l 0
 36 146 l 0
 52 146 l 0
 66 51 100 10 152 10 c 0
 199 10 228 38 228 87 c 0
 228 119 211 153 172 202 c 0
 129 256 109 301 109 333 c 0
 109 399 156 441 230 441 c 0
 247 441 261 438 286 431 c 0
 305 425 314 424 322 424 c 0
 337 424 344 428 352 442 c 0
 366 442 l 0
EndSplineSet
Validated: 1
EndChar

StartChar: t
Encoding: 116 116 84
Width: 278
Flags: W
HStem: -11 49<70.5 146.819> 396 32<216 291>
VStem: 38 80<9.64726 118.875>
LayerCount: 2
Fore
SplineSet
296 428 m 0
 291 396 l 0
 207 396 l 0
 120 68 l 0
 119 64 118 57 118 54 c 0
 118 41 124 38 133 38 c 0
 149 38 165 54 214 117 c 0
 227 110 l 0
 167 18 136 -11 84 -11 c 0
 57 -11 38 1 38 26 c 0
 38 37 46 68 54 100 c 0
 132 396 l 0
 57 396 l 0
 56 399 56 402 56 402 c 0
 56 413 65 422 89 427 c 0
 121 434 186 483 222 537 c 0
 226 543 232 546 236 546 c 0
 242 546 245 543 245 538 c 0
 245 538 245 533 244 531 c 0
 216 428 l 0
 296 428 l 0
EndSplineSet
Validated: 1
EndChar

StartChar: u
Encoding: 117 117 85
Width: 500
Flags: W
HStem: -9 51<89.547 164.662 337.001 397.59> 400 14<57 105.567> 421 11G<178.5 211 366.5 465>
VStem: 42 77<23.5 148.456> 289 78<17.4545 142.708>
LayerCount: 2
Fore
SplineSet
461 119 m 0
 475 110 l 0
 410 11 384 -9 337 -9 c 0
 307 -9 289 8 289 39 c 0
 289 61 302 128 334 236 c 0
 216 42 166 -11 95 -11 c 0
 60 -11 42 5 42 42 c 0
 42 61 51 97 69 170 c 0
 104 309 l 0
 112 342 118 368 118 376 c 0
 118 383 113 391 107 394 c 0
 98 399 95 400 57 400 c 0
 57 414 l 0
 114 421 150 428 207 441 c 0
 211 438 l 0
 122 83 l 0
 121 80 119 71 119 67 c 0
 119 52 124 42 139 42 c 0
 173 42 219 95 281 189 c 0
 328 260 342 298 391 432 c 0
 465 432 l 0
 386 133 l 0
 381 114 367 67 367 55 c 0
 367 44 371 38 378 38 c 0
 394 38 410 52 461 119 c 0
EndSplineSet
Validated: 1
EndChar

StartChar: v
Encoding: 118 118 86
Width: 444
Flags: W
HStem: 421 20G<149.5 156.5 359.5 386.5>
VStem: 136 71<70 267.375> 375 51<300.836 395.5>
LayerCount: 2
Fore
SplineSet
207 70 m 0
 238 102 l 0
 310 176 375 286 375 333 c 0
 375 343 370 350 357 362 c 0
 339 378 332 391 332 407 c 0
 332 428 349 441 370 441 c 0
 403 441 426 409 426 382 c 0
 426 339 398 281 363 227 c 0
 318 157 262 93 244 74 c 0
 189 15 162 -18 145 -18 c 0
 139 -18 136 -8 136 9 c 0
 136 33 l 0
 136 102 125 235 112 311 c 0
 99 387 88 404 51 404 c 0
 41 404 31 404 20 403 c 0
 20 416 l 0
 65 423 100 430 132 437 c 0
 140 440 147 441 152 441 c 0
 161 441 161 435 182 327 c 0
 195 260 201 205 207 70 c 0
EndSplineSet
Validated: 1
EndChar

StartChar: w
Encoding: 119 119 87
Width: 667
Flags: W
HStem: 404 13<15 56.824> 421 20G<135.5 144.5 392.5 398 585 611>
VStem: 117 73<126 335.48> 600 48<309.981 401>
LayerCount: 2
Fore
SplineSet
403 426 m 0
 435 74 l 0
 566 238 600 291 600 334 c 0
 600 346 594 354 578 369 c 0
 562 384 557 396 557 410 c 0
 557 426 574 441 596 441 c 0
 626 441 648 417 648 385 c 0
 648 321 574 204 436 36 c 0
 427 25 l 0
 400 -8 391 -18 382 -18 c 0
 375 -18 373 -9 371 17 c 0
 342 327 l 0
 253 175 l 0
 235 145 217 112 198 76 c 0
 162 7 145 -18 134 -18 c 0
 125 -18 123 -10 121 29 c 0
 117 120 l 0
 113 207 102 314 90 362 c 0
 81 399 72 404 43 404 c 0
 15 404 l 0
 15 417 l 0
 46 422 80 426 110 434 c 0
 123 437 132 441 139 441 c 0
 150 441 151 439 158 407 c 0
 172 339 186 214 190 126 c 0
 382 430 l 0
 387 438 390 440 395 440 c 0
 401 440 403 437 403 426 c 0
EndSplineSet
Validated: 1
EndChar

StartChar: x
Encoding: 120 120 88
Width: 444
Flags: W
HStem: -11 55<-3.41356 78.2185 278 345.709> 385 56<351.164 428.043> 404 37<106.006 204.5>
LayerCount: 2
Fore
SplineSet
243 355 m 0xa0
 255 298 l 0
 325 405 362 441 406 441 c 0xc0
 430 441 447 426 447 404 c 0xa0
 447 383 433 368 413 368 c 0
 394 368 385 385 361 385 c 0xc0
 343 385 307 341 263 264 c 0
 263 257 265 243 271 219 c 0
 303 85 l 0
 310 57 319 44 333 44 c 0
 346 44 357 54 380 84 c 0
 389 96 393 102 401 112 c 0
 416 103 l 0
 358 13 332 -11 294 -11 c 0
 262 -11 247 7 235 57 c 0
 206 176 l 0
 118 57 l 0
 74 -2 54 -11 23 -11 c 0
 -8 -11 -27 5 -27 31 c 0
 -27 51 -13 67 7 67 c 0
 16 67 26 63 39 56 c 0
 49 50 59 47 65 47 c 0
 76 47 95 66 116 96 c 0
 198 212 l 0
 170 336 l 0
 156 396 149 404 124 404 c 0
 116 404 104 402 85 397 c 0
 67 392 l 0
 64 408 l 0
 75 412 l 0
 136 434 169 441 192 441 c 0
 217 441 229 423 243 355 c 0xa0
EndSplineSet
Validated: 1
EndChar

StartChar: y
Encoding: 121 121 89
Width: 444
Flags: W
HStem: -206 55<4.39307 78.9683> 400 17<15 45.4858> 404 37<44.9745 96.7107>
VStem: 386 40<300.255 401>
LayerCount: 2
Fore
SplineSet
243 186 m 0xb0
 264 76 l 0
 349 217 386 289 386 333 c 0
 386 347 379 353 360 365 c 0
 340 378 334 388 334 404 c 0
 334 426 351 441 374 441 c 0
 404 441 426 416 426 386 c 0
 426 329 378 219 295 81 c 0
 191 -91 84 -206 27 -206 c 0
 -3 -206 -24 -189 -24 -163 c 0
 -24 -141 -7 -123 15 -123 c 0
 50 -123 50 -151 76 -151 c 0
 89 -151 101 -143 124 -118 c 0
 142 -99 187 -40 195 -27 c 0
 201 -15 205 -3 205 8 c 0
 205 48 150 272 123 340 c 0
 104 389 86 404 46 404 c 0xb0
 35 404 26 403 15 400 c 0
 15 417 l 0xd0
 26 419 37 421 47 423 c 0
 67 427 100 433 154 441 c 0
 158 441 l 0
 173 441 226 275 243 186 c 0xb0
EndSplineSet
Validated: 1
EndChar

StartChar: z
Encoding: 122 122 90
Width: 389
Flags: W
HStem: -81 21<247.279 306.446> 368 60<102.652 308>
VStem: 65 16<310.25 325.221> 308 55<-54.2488 13.628>
LayerCount: 2
Fore
SplineSet
380 417 m 0
 91 73 l 0
 149 60 171 49 211 -10 c 0
 237 -48 256 -60 281 -60 c 0
 297 -60 308 -54 308 -45 c 0
 308 -41 306 -36 303 -30 c 0
 297 -18 295 -10 295 -2 c 0
 296 15 312 32 328 32 c 0
 349 32 363 17 363 -5 c 0
 363 -45 326 -81 270 -81 c 0
 241 -81 207 -68 157 -37 c 0
 110 -8 78 5 52 5 c 0
 36 5 23 0 7 -13 c 0
 -2 -4 l 0
 308 368 l 0
 172 368 l 0
 120 368 101 359 81 308 c 0
 65 312 l 0
 97 428 l 0
 380 428 l 0
 380 417 l 0
EndSplineSet
Validated: 1
EndChar

StartChar: braceleft
Encoding: 123 123 91
Width: 400
Flags: W
HStem: -177 11<164.311 176> 676 11<387.486 404>
VStem: 51 75<-151.48 0.787422> 117 75<87.9186 235.042>
LayerCount: 2
Fore
SplineSet
407 687 m 0xd0
 404 676 l 0
 342 660 316 631 295 552 c 0
 250 384 l 0
 228 301 201 272 136 255 c 0
 175 238 192 219 192 192 c 0xd0
 192 174 174 96 148 2 c 0
 132 -59 126 -84 126 -100 c 0
 126 -137 141 -155 179 -166 c 0
 176 -177 l 0
 84 -174 51 -154 51 -99 c 0xe0
 51 -75 61 -31 83 45 c 0
 105 120 117 174 117 198 c 0
 117 227 103 241 64 255 c 0
 128 272 150 296 170 369 c 0
 218 547 l 0
 247 653 294 687 407 687 c 0xd0
EndSplineSet
Validated: 1
EndChar

StartChar: bar
Encoding: 124 124 92
Width: 275
Flags: W
HStem: 646 20G<105 171>
VStem: 105 66<-18 666>
LayerCount: 2
Fore
SplineSet
171 -18 m 0
 105 -18 l 0
 105 666 l 0
 171 666 l 0
 171 -18 l 0
EndSplineSet
Validated: 1
EndChar

StartChar: braceright
Encoding: 125 125 93
Width: 400
Flags: W
HStem: -177 11<-4 12.5138> 676 11<224 232.453>
VStem: 208 75<274.826 420.053> 274 75<509.068 661.344>
LayerCount: 2
Fore
SplineSet
221 676 m 0xd0
 224 687 l 0
 316 684 349 664 349 609 c 0xd0
 349 586 339 540 317 465 c 0
 295 389 283 336 283 312 c 0
 283 283 297 269 336 255 c 0
 272 238 250 214 230 141 c 0
 182 -37 l 0
 153 -143 105 -177 -7 -177 c 0
 -4 -166 l 0
 58 -150 84 -121 105 -42 c 0
 150 126 l 0
 172 209 198 238 264 255 c 0
 225 272 208 290 208 318 c 0xe0
 208 336 226 414 252 508 c 0
 268 566 274 595 274 609 c 0
 274 646 259 665 221 676 c 0xd0
EndSplineSet
Validated: 1
EndChar

StartChar: asciitilde
Encoding: 126 126 94
Width: 541
Flags: W
HStem: 187 64<307.367 427.388> 255 64<108.463 248.736>
LayerCount: 2
Fore
SplineSet
466 323 m 0
 502 273 l 0
 457 207 423 187 377 187 c 0
 332 187 307 201 274 220 c 0
 257 230 210 255 161 255 c 0
 130 255 94 233 76 183 c 0
 40 233 l 0
 71 293 115 319 162 319 c 0
 207 319 239 305 276 288 c 0
 294 280 344 251 373 251 c 0
 412 251 429 267 466 323 c 0
EndSplineSet
Validated: 1
EndChar

StartChar: Gamma
Encoding: 915 915 95
Width: 611
Flags: W
HStem: 0 16<8 46.726 208.709 259> 620 33<335.109 561.5> 637 16<148 201.051>
VStem: 592 21<500.333 532.688>
LayerCount: 2
Fore
SplineSet
645 653 m 0xb0
 613 499 l 0
 592 501 l 0
 595 523 595 528 595 534 c 0
 595 607 572 620 396 620 c 0xd0
 350 620 335 614 328 588 c 0
 196 115 l 0
 189 90 182 70 182 55 c 0
 182 31 200 20 259 16 c 0
 259 0 l 0
 8 0 l 0
 8 16 l 0
 66 20 76 42 91 94 c 0
 214 536 l 0
 221 561 224 581 224 597 c 0
 224 625 214 631 148 637 c 0
 148 653 l 0
 645 653 l 0xb0
EndSplineSet
Validated: 1
EndChar

StartChar: sigma
Encoding: 963 963 96
Width: 498
Flags: W
HStem: -11 21<148.055 231.424> 354 74<238.828 320.855 343 513>
VStem: 27 84<47.0452 202.98> 355 84<135.791 278.661>
LayerCount: 2
Fore
SplineSet
531 428 m 0
 513 354 l 0
 343 354 l 0
 383 291 439 292 439 217 c 0
 439 107 313 -11 173 -11 c 0
 79 -11 27 43 27 130 c 0
 27 265 148 428 337 428 c 0
 531 428 l 0
355 221 m 0
 355 285 329 335 297 354 c 0
 228 354 111 241 111 100 c 0
 111 40 142 10 189 10 c 0
 285 10 355 141 355 221 c 0
EndSplineSet
Validated: 1
EndChar

StartChar: rho
Encoding: 961 961 97
Width: 504
Flags: W
HStem: -205 21G<-40 45.5> -11 19<134.731 214.274> 420 21<278.857 346.318>
VStem: 382 89<202.992 390.924>
LayerCount: 2
Fore
SplineSet
-9 -135 m 0
 66 151 l 0
 112 328 212 441 319 441 c 0
 372 441 471 441 471 304 c 0
 471 150 315 -11 173 -11 c 0
 150 -11 128 -7 105 6 c 0
 69 -135 l 0
 63 -159 53 -184 38 -205 c 0
 -40 -205 l 0
 -26 -184 -16 -161 -9 -135 c 0
382 312 m 0
 382 371 359 420 316 420 c 0
 260 420 195 346 165 239 c 0
 147 174 119 70 119 45 c 0
 119 24 140 8 168 8 c 0
 301 10 382 194 382 312 c 0
EndSplineSet
Validated: 1
EndChar

StartChar: u1D49C
Encoding: 119964 119964 98
Width: 855
Flags: W
HStem: -15 30<89.7965 201.267> 0 21G<455 560.095> 39 28<401.844 473> 65 84<69.3906 99.7562> 447 33<285.885 425.197> 638 36<747.731 772>
VStem: 31 38<32.177 65> 162 41<211.162 372.458> 536 23<227 293.375>
LayerCount: 2
Fore
SplineSet
837 672 m 0x9f80
 846 658 l 0
 753 476 678 301 581 69 c 0
 617 76 657 89 684 103 c 0
 693 87 l 0
 661 63 611 49 569 42 c 0
 552 0 l 0
 455 0 l 0
 473 39 l 0x6f80
 416 43 360 56 311 79 c 0
 255 22 198 -15 138 -15 c 0
 74 -15 31 24 31 77 c 0
 31 121 60 149 93 149 c 0
 121 149 143 128 143 101 c 0
 143 80 128 53 100 53 c 0
 95 53 77 55 71 65 c 0
 69 65 l 0
 69 46 92 15 134 15 c 0
 191 15 229 39 284 92 c 0
 212 133 162 199 162 299 c 0
 162 416 260 480 349 480 c 0
 422 480 475 447 510 398 c 0
 608 541 710 674 813 674 c 0
 822 674 829 674 837 672 c 0x9f80
772 638 m 0
 771 638 l 0
 688 609 608 495 526 371 c 0
 547 330 558 279 559 227 c 0
 628 378 702 531 772 638 c 0
536 199 m 0
 536 251 527 302 507 344 c 0
 451 258 395 172 335 105 c 0
 379 84 430 71 486 67 c 0
 535 176 l 0
 536 184 536 191 536 199 c 0
492 372 m 0
 462 417 415 447 349 447 c 0
 275 447 203 386 203 301 c 0
 203 218 245 158 310 119 c 0
 368 183 431 278 492 372 c 0
EndSplineSet
Validated: 1
EndChar

StartChar: uni210C
Encoding: 8460 8460 99
Width: 824
Flags: W
HStem: -142 89<298.5 322.5> 547 95<465.5 475>
VStem: 312 95<119 212.5>
LayerCount: 2
Fore
SplineSet
626 695 m 1
 645 682 l 1
 595 612 524 547 426 547 c 0
 379 547 343 556 293 597 c 1
 266 575 252 543 252 506 c 0
 252 459 272 407 309 367 c 1
 427 436 473 462 533 494 c 1
 686 459 773 352 773 215 c 0
 773 108 735 56 684 3 c 0
 605 -80 494 -132 440 -204 c 1
 427 -204 l 1
 387 -163 350 -142 295 -142 c 0
 253 -142 209 -163 181 -198 c 1
 161 -189 l 1
 193 -117 251 -53 346 -53 c 0
 391 -53 429 -67 475 -117 c 1
 619 -27 656 94 656 172 c 0
 656 287 585 394 471 394 c 0
 432 394 392 383 328 340 c 1
 372 284 l 2
 401 247 407 223 407 202 c 0
 407 142 366 90 230 -22 c 1
 206 -4 131 38 113 43 c 1
 113 43 79 10 67 -10 c 1
 43 5 l 1
 147 152 l 1
 166 140 277 74 282 74 c 1
 299 90 312 102 312 136 c 0
 312 203 155 293 155 440 c 0
 155 540 281 636 357 695 c 1
 398 657 443 642 488 642 c 0
 532 642 584 650 626 695 c 1
EndSplineSet
Validated: 1
EndChar

StartChar: tau
Encoding: 964 964 100
Width: 410
Flags: W
HStem: -11 76<160.5 246.577> 354 74<131.226 218 262.61 405>
VStem: 120 82<38.5 167.244> 313 16<120.699 134>
LayerCount: 2
Fore
SplineSet
426 428 m 0
 405 354 l 0
 272 354 l 0
 202 195 202 130 202 116 c 0
 202 86 212 65 238 65 c 0
 263 65 296 98 313 134 c 0
 329 134 l 0
 306 56 248 -11 184 -11 c 0
 137 -11 120 17 120 60 c 0
 120 133 171 251 218 354 c 0
 157 354 l 0
 103 354 57 318 28 266 c 0
 12 266 l 0
 39 331 108 428 208 428 c 0
 426 428 l 0
EndSplineSet
Validated: 1
EndChar
